<?xml version="1.0" encoding="UTF-8"?>
<svg width="50px" height="50px" viewBox="0 0 50 50" version="1.1" xmlns="http://www.w3.org/2000/svg" xmlns:xlink="http://www.w3.org/1999/xlink">
    <!-- Generator: Sketch 48.2 (47327) - http://www.bohemiancoding.com/sketch -->
    <title>vizzy-icon</title>
    <desc>Created with Sketch.</desc>
    <defs>
        <linearGradient x1="3.13022226%" y1="24.0958756%" x2="97.374248%" y2="75.6548785%" id="linearGradient-1">
            <stop stop-color="#FF8B3D" offset="0%"></stop>
            <stop stop-color="#C70650" offset="100%"></stop>
        </linearGradient>
        <path d="M15.527,0.3865 L1.477,8.3125 C0.562,8.8505 0,9.8335 0,10.8945 L0,26.4675 C0,27.5285 0.562,28.5115 1.477,29.0495 L15.557,36.7645 C16.456,37.2575 17.545,37.2575 18.444,36.7645 L32.523,29.0495 C33.438,28.5115 34,27.5285 34,26.4675 L34,10.8945 C34,9.8335 33.438,8.8505 32.523,8.3125 L18.473,0.3865 C18.016,0.1285 17.508,-0.0005 17,-0.0005 C16.492,-0.0005 15.984,0.1285 15.527,0.3865" id="path-2"></path>
    </defs>
    <g id="Page-1" stroke="none" stroke-width="1" fill="none" fill-rule="evenodd">
        <g id="vizzy-icon">
            <g id="Group" transform="translate(8.000000, 7.000000)">
                <mask id="mask-3" fill="white">
                    <use xlink:href="#path-2"></use>
                </mask>
                <use id="Hexagon" fill="url(#linearGradient-1)" xlink:href="#path-2"></use>
                <path d="M25.3242,28.9423 L21.2292,26.0633 L21.6462,31.0663 L18.6252,32.8103 L18.2812,24.9213 C18.2242,23.6383 18.8872,22.4313 19.9982,21.7903 L28.3742,27.1813 L25.3242,28.9423 Z M12.3242,31.0487 L12.7702,26.0637 L8.6462,28.9247 L5.6252,27.1817 L12.2842,22.9387 C13.3672,22.2487 14.7442,22.2187 15.8552,22.8607 L15.3742,32.8107 L12.3242,31.0487 Z M4,20.8437 L8.541,18.7377 L4,16.5967 L4,13.1087 L11.004,16.7537 C12.143,17.3467 12.857,18.5247 12.857,19.8077 L4,24.3657 L4,20.8437 Z M8.6758,8.5321 L12.7708,11.4111 L12.3538,6.4081 L15.3748,4.6651 L15.7188,12.5531 C15.7758,13.8361 15.1128,15.0431 14.0018,15.6841 L5.6258,10.2931 L8.6758,8.5321 Z M21.6758,6.4257 L21.2298,11.4107 L25.3538,8.5497 L28.3748,10.2927 L21.7158,14.5357 C20.6328,15.2267 19.2558,15.2557 18.1448,14.6137 L18.6258,4.6647 L21.6758,6.4257 Z M30,16.6308 L25.459,18.7368 L30,20.8788 L30,24.3658 L22.996,20.7208 C21.857,20.1278 21.143,18.9498 21.143,17.6668 L30,13.1088 L30,16.6308 Z" id="Combined-Shape" fill="#FFFFFF"></path>
            </g>
        </g>
    </g>
</svg>