<?xml version="1.0" standalone="no"?>
<!DOCTYPE svg PUBLIC "-//W3C//DTD SVG 20010904//EN"
 "http://www.w3.org/TR/2001/REC-SVG-20010904/DTD/svg10.dtd">
<svg version="1.0" xmlns="http://www.w3.org/2000/svg"
 width="700.000000pt" height="700.000000pt" viewBox="0 0 700.000000 700.000000"
 preserveAspectRatio="xMidYMid meet">
<metadata>
Created by potrace 1.11, written by Peter Selinger 2001-2013
</metadata>
<g transform="translate(0.000000,700.000000) scale(0.100000,-0.100000)"
fill="#000000" stroke="none">
<path d="M3449 6016 c-2 -2 -21 -6 -42 -9 -47 -6 -100 -32 -302 -147 -88 -51
-185 -106 -215 -122 -30 -17 -86 -49 -125 -71 -38 -22 -88 -49 -110 -62 -22
-12 -57 -31 -77 -43 -50 -29 -91 -52 -163 -92 -33 -18 -159 -89 -280 -158
-121 -68 -249 -140 -285 -160 -36 -19 -82 -46 -102 -59 -21 -13 -40 -23 -42
-23 -2 0 -37 -19 -78 -43 -40 -24 -104 -60 -141 -81 -169 -92 -210 -119 -254
-166 -42 -46 -82 -119 -99 -184 -11 -42 -13 -252 -11 -1206 2 -635 5 -1162 8
-1170 3 -8 10 -28 14 -45 12 -43 70 -131 111 -168 37 -33 102 -72 245 -150 46
-24 104 -56 129 -70 72 -40 440 -242 500 -274 112 -60 457 -249 537 -294 18
-10 61 -34 95 -53 35 -19 169 -92 298 -163 311 -170 325 -176 430 -177 50 -1
104 5 130 14 53 17 85 34 520 273 137 76 155 85 325 177 44 24 92 52 108 62
15 11 27 16 27 12 0 -4 8 0 18 8 9 8 67 41 127 73 61 32 115 61 120 65 6 4 44
25 85 47 41 22 185 101 320 175 135 74 281 154 325 178 85 46 146 89 182 130
28 32 79 126 90 165 13 51 16 2301 3 2370 -27 139 -107 232 -287 332 -164 91
-202 113 -281 160 -41 24 -75 43 -77 43 -2 0 -27 14 -55 30 -28 17 -79 45
-113 64 -34 19 -123 69 -197 111 -74 42 -160 91 -190 107 -30 17 -208 117
-395 223 -187 106 -371 209 -410 230 -38 21 -77 43 -85 50 -39 30 -141 74
-194 84 -60 11 -129 15 -137 7z"/>
</g>
</svg>
